<svg id="Ebene_1" xmlns="http://www.w3.org/2000/svg" viewBox="0 0 132 108"><style>.st0{fill:#e03351}.st1{fill:#fff}</style><path class="st0" d="M127.9 33.3c0-18-14.6-32.6-32.6-32.6C82.4.7 71.3 8.2 66 19 60.7 8.2 49.6.7 36.7.7 18.7.7 4.1 15.3 4.1 33.3c0 42.8 61.9 74 61.9 74s61.9-31.2 61.9-74z"/><circle class="st1" cx="85.1" cy="37.4" r="7.8"/><circle class="st1" cx="46.9" cy="37.4" r="7.8"/><path class="st1" d="M56.3 80.7h19.4V62.1c0-5.3-4.4-9.7-9.7-9.7-5.3 0-9.7 4.4-9.7 9.7v18.6z"/><circle class="st1" cx="66" cy="42.3" r="8"/><path class="st1" d="M53.6 59c0-2.5 1-4.8 2.6-6.5-.5-3-3.1-5.3-6.3-5.3h-6c-3.5 0-6.4 2.9-6.4 6.4v21h16.1V59zm34.5-11.8h-6c-3.1 0-5.8 2.3-6.3 5.3 1.6 1.7 2.6 4 2.6 6.5v15.7h16.1v-21c0-3.6-2.9-6.5-6.4-6.5z"/></svg>